<svg width="14" height="16" viewBox="0 0 14 16" fill="none" xmlns="http://www.w3.org/2000/svg">
<g clip-path="url(#clip0_120_248)">
<path d="M10.75 15L10.75 8C10.75 7.80109 10.829 7.61032 10.9697 7.46967C11.1103 7.32902 11.3011 7.25 11.5 7.25C11.6989 7.25 11.8897 7.32902 12.0303 7.46967C12.171 7.61032 12.25 7.80109 12.25 8L12.25 15C12.25 15.1989 12.171 15.3897 12.0303 15.5303C11.8897 15.671 11.6989 15.75 11.5 15.75C11.3011 15.75 11.1103 15.671 10.9697 15.5303C10.829 15.3897 10.75 15.1989 10.75 15ZM10.75 6L10.75 1C10.75 0.801088 10.829 0.610322 10.9697 0.46967C11.1103 0.329017 11.3011 0.25 11.5 0.25C11.6989 0.25 11.8897 0.329018 12.0303 0.46967C12.171 0.610322 12.25 0.801088 12.25 1L12.25 6C12.25 6.19891 12.171 6.38968 12.0303 6.53033C11.8897 6.67098 11.6989 6.75 11.5 6.75C11.3011 6.75 11.1103 6.67098 10.9697 6.53033C10.829 6.38968 10.75 6.19891 10.75 6Z" fill="black"/>
<path d="M9.25 6C9.25259 5.80189 9.33244 5.61263 9.47253 5.47253C9.61263 5.33244 9.80189 5.25259 10 5.25L13 5.25C13.1989 5.25 13.3897 5.32902 13.5303 5.46967C13.671 5.61032 13.75 5.80109 13.75 6C13.75 6.19891 13.671 6.38968 13.5303 6.53033C13.3897 6.67098 13.1989 6.75 13 6.75L10 6.75C9.80189 6.74741 9.61263 6.66756 9.47253 6.52747C9.33244 6.38737 9.25259 6.19811 9.25 6ZM1.75 15L1.75 8C1.75 7.80109 1.82902 7.61032 1.96967 7.46967C2.11032 7.32902 2.30109 7.25 2.5 7.25C2.69891 7.25 2.88968 7.32902 3.03033 7.46967C3.17098 7.61032 3.25 7.80109 3.25 8L3.25 15C3.25 15.1989 3.17098 15.3897 3.03033 15.5303C2.88968 15.671 2.69891 15.75 2.5 15.75C2.30109 15.75 2.11032 15.671 1.96967 15.5303C1.82902 15.3897 1.75 15.1989 1.75 15ZM1.75 6L1.75 0.999999C1.75 0.801087 1.82902 0.610322 1.96967 0.469669C2.11032 0.329017 2.30109 0.249999 2.5 0.25C2.69891 0.25 2.88968 0.329017 3.03033 0.469669C3.17098 0.610322 3.25 0.801087 3.25 1L3.25 6C3.25 6.19891 3.17098 6.38968 3.03033 6.53033C2.88968 6.67098 2.69891 6.75 2.5 6.75C2.30109 6.75 2.11032 6.67098 1.96967 6.53033C1.82902 6.38968 1.75 6.19891 1.75 6Z" fill="black"/>
<path d="M0.25 6C0.25259 5.80189 0.332439 5.61263 0.472534 5.47253C0.612629 5.33244 0.801893 5.25259 1 5.25L4 5.25C4.19891 5.25 4.38968 5.32902 4.53033 5.46967C4.67098 5.61032 4.75 5.80109 4.75 6C4.75 6.19891 4.67098 6.38968 4.53033 6.53033C4.38968 6.67098 4.19891 6.75 4 6.75L1 6.75C0.801893 6.74741 0.612629 6.66756 0.472534 6.52747C0.332439 6.38737 0.25259 6.19811 0.25 6ZM6.25 15L6.25 12C6.25 11.8011 6.32902 11.6103 6.46967 11.4697C6.61032 11.329 6.80109 11.25 7 11.25C7.19891 11.25 7.38968 11.329 7.53033 11.4697C7.67098 11.6103 7.75 11.8011 7.75 12L7.75 15C7.75 15.1989 7.67098 15.3897 7.53033 15.5303C7.38968 15.671 7.19891 15.75 7 15.75C6.80109 15.75 6.61032 15.671 6.46967 15.5303C6.32902 15.3897 6.25 15.1989 6.25 15ZM6.25 10L6.25 1C6.25 0.801088 6.32902 0.610322 6.46967 0.46967C6.61032 0.329017 6.80109 0.25 7 0.25C7.19891 0.25 7.38968 0.329018 7.53033 0.46967C7.67098 0.610322 7.75 0.801088 7.75 1L7.75 10C7.75 10.1989 7.67098 10.3897 7.53033 10.5303C7.38968 10.671 7.19891 10.75 7 10.75C6.80109 10.75 6.61032 10.671 6.46967 10.5303C6.32902 10.3897 6.25 10.1989 6.25 10Z" fill="black"/>
<path d="M4.75 10C4.75259 9.80189 4.83244 9.61263 4.97253 9.47253C5.11263 9.33244 5.30189 9.25259 5.5 9.25L8.5 9.25C8.69891 9.25 8.88968 9.32902 9.03033 9.46967C9.17098 9.61032 9.25 9.80109 9.25 10C9.25 10.1989 9.17098 10.3897 9.03033 10.5303C8.88968 10.671 8.69891 10.75 8.5 10.75L5.5 10.75C5.30189 10.7474 5.11263 10.6676 4.97253 10.5275C4.83244 10.3874 4.75259 10.1981 4.75 10Z" fill="black"/>
</g>
<defs>
<clipPath id="clip0_120_248">
<rect width="16" height="14" fill="white" transform="translate(14) rotate(90)"/>
</clipPath>
</defs>
</svg>
